<svg width="36" height="36" viewBox="0 0 36 36" fill="none" xmlns="http://www.w3.org/2000/svg">
<g clip-path="url(#clip0_37_2)">
<path d="M15.4888 23.5559C14.3263 23.0828 13.375 22.3678 12.6619 21.3686C11.9364 20.3519 11.5273 19.2175 11.4857 17.9521C11.4413 16.6005 11.7308 15.3421 12.4762 14.2108C13.5835 12.5304 15.1376 11.5671 17.1522 11.359C18.7621 11.1927 20.2502 11.564 21.541 12.5096C23.0062 13.5829 23.9019 15.0542 24.088 16.8855C24.2878 18.8507 23.7512 20.5976 22.3684 22.0414C21.2127 23.2481 19.7905 23.8814 18.1177 23.9604C17.2206 24.0027 16.3572 23.8518 15.4888 23.5559Z" fill="#32D583"/>
<path d="M30.8051 31.6146C30.0814 32.4676 29.2342 33.1098 28.1802 33.4579C27.5755 33.6575 26.9605 33.7915 26.3208 33.7463C25.3172 33.6754 24.313 33.6079 23.3119 33.509C22.4293 33.4219 21.957 32.8333 22.1783 31.9582C22.3082 31.4443 22.7136 31.0937 23.4212 31.1439C24.2932 31.2057 25.1625 31.3068 26.0325 31.3966C27.6086 31.5595 29.212 30.5069 29.5435 28.9627C29.7515 27.9937 29.794 26.9894 29.917 26.0017C29.9395 25.8203 29.9743 25.6367 30.0332 25.4642C30.2295 24.8901 30.6706 24.6888 31.2229 24.693C31.7393 24.697 32.2095 25.164 32.2675 25.6878C32.2865 25.8596 32.2936 26.0359 32.2779 26.2076C32.2034 27.0267 32.1436 27.8482 32.0323 28.6626C31.8848 29.7415 31.5178 30.7406 30.8051 31.6146Z" fill="#32D583"/>
<path d="M27.8217 3.31078C28.7076 3.377 29.5552 3.48611 30.3548 3.81487C31.1273 4.13252 31.8101 4.58672 32.3788 5.20672C33.0293 5.91595 33.512 6.72241 33.7258 7.66217C33.8333 8.13478 33.9112 8.63061 33.8933 9.11188C33.8551 10.1377 33.7768 11.1645 33.6545 12.1837C33.5728 12.8645 33.3254 13.1451 32.7649 13.2798C31.9247 13.4816 31.2189 12.8631 31.2981 12.0027C31.3765 11.1523 31.4537 10.3015 31.5511 9.45308C31.733 7.86798 30.6601 6.22703 29.0918 5.89735C28.2841 5.72755 27.4499 5.68439 26.6285 5.57809C26.3128 5.53724 25.9876 5.51692 25.6871 5.42238C25.0912 5.23485 24.7322 4.67428 24.8531 4.1663C25.0349 3.40203 25.5195 3.11542 26.2045 3.15538C26.7343 3.18628 27.262 3.25552 27.8217 3.31078Z" fill="#32D583"/>
<path d="M3.89589 10.4366C3.43251 10.1561 3.26901 9.7422 3.31051 9.25042C3.38582 8.35816 3.45544 7.464 3.57634 6.5773C3.88311 4.32742 5.40464 2.40189 7.69819 1.75287C8.4704 1.53435 9.24567 1.49247 10.0329 1.55702C10.8008 1.61998 11.57 1.68287 12.3327 1.78861C12.9501 1.87422 13.3227 2.10728 13.4445 2.73486C13.6034 3.55385 13.0255 4.20005 12.2015 4.14807C11.3394 4.0937 10.4794 3.99762 9.62107 3.89737C8.0425 3.71301 6.38948 4.77475 6.0519 6.36245C5.89322 7.10872 5.85264 7.87986 5.75244 8.63892C5.70125 9.0267 5.67586 9.42393 5.56924 9.797C5.38929 10.4266 4.80098 10.7129 4.17748 10.5254C4.09107 10.4994 4.00505 10.4722 3.89589 10.4366Z" fill="#32D583"/>
<path d="M4.08619 26.8219C4.24398 27.4144 4.46786 27.9487 4.86815 28.3918C5.43654 29.0209 6.13272 29.4191 6.98229 29.5126C7.86212 29.6094 8.74424 29.6852 9.62463 29.7772C10.0708 29.8239 10.4398 30.0233 10.6291 30.4409C11.004 31.2682 10.4547 32.2117 9.4418 32.139C8.52805 32.0734 7.61284 31.9962 6.70643 31.867C4.98644 31.6218 3.59648 30.7839 2.62855 29.3406C1.98799 28.3855 1.63227 27.3078 1.70563 26.1335C1.76966 25.1086 1.84398 24.0835 1.95153 23.0624C2.00124 22.5904 2.22262 22.1909 2.72846 22.0349C3.22635 21.8813 3.67084 21.9964 4.024 22.3597C4.26738 22.6101 4.33476 22.9542 4.30372 23.3005C4.23307 24.0888 4.13749 24.875 4.07832 25.6641C4.0502 26.0391 4.08223 26.4186 4.08619 26.8219Z" fill="#32D583"/>
</g>
<defs>
<clipPath id="clip0_37_2">
<rect width="32" height="32" fill="white" transform="translate(3.39575 0.0823975) rotate(5.63945)"/>
</clipPath>
</defs>
</svg>
