<svg width="512" height="512" viewBox="0 0 512 512" fill="none" xmlns="http://www.w3.org/2000/svg">
<g clip-path="url(#clip0_105_9)">
<path d="M1 154.468C3.13066 150.7 5.15518 147.326 7.41185 144.114C14.2228 134.422 24.0633 128.785 34.8901 125.127C56.1492 117.945 77.4511 110.811 99.0085 104.606C145.743 91.1546 192.56 77.965 239.537 65.3891C255.406 61.1407 271.879 59.1705 288.038 55.9704C306.329 52.3483 324.865 52.2293 343.278 53.2108C364.567 54.3456 384.416 60.9726 401.564 74.1339C423.422 90.9103 436.623 113.795 447.088 138.742C459.68 168.761 467.027 200.352 475.832 231.515C476.122 232.543 475.869 233.725 475.869 235.052C467.05 229.756 458.782 224.179 449.98 219.64C435.314 212.076 420.666 204.256 405.34 198.253C389.414 192.015 372.852 187.19 356.27 182.899C342.697 179.387 328.768 176.924 314.849 175.166C298.606 173.114 282.223 171.893 265.863 171.134C251.888 170.486 237.846 170.61 223.859 171.111C210.251 171.599 196.641 172.663 183.095 174.083C163.815 176.102 144.579 178.562 125.352 181.054C111.505 182.85 97.7291 185.21 83.8744 186.943C70.9113 188.564 57.8021 189.157 44.9132 191.191C32.9455 193.079 21.7563 191.875 12.0222 184.791C7.77367 181.699 5.09666 176.447 1.35299 172.088C1 166.312 1 160.624 1 154.468Z" fill="#949494"/>
<path d="M513 434.531C510.011 440.221 507.302 445.628 503.976 450.625C496.526 461.817 480.149 464.214 468.471 457.187C458.137 450.968 452.869 441.329 448.644 431.013C440.209 410.42 432.458 389.548 424.359 368.817C415.153 345.255 406.199 321.588 396.517 298.222C389.89 282.229 382.708 266.418 374.845 251C367.699 236.99 359.297 223.621 351.462 209.962C351.229 209.555 351.139 209.067 350.786 208.051C355.268 209.095 359.494 209.691 363.447 211.069C378.26 216.233 393.121 221.306 407.706 227.065C425.12 233.941 441.439 243.054 456.593 254.043C466.186 261 475.562 268.338 484.37 276.247C486.947 278.561 487.707 283.323 488.499 287.129C492.805 307.82 496.867 328.561 501 349.287C503.936 364.007 506.849 378.73 509.777 393.451C510.593 397.555 511.426 401.655 512.626 405.879C513 415.354 513 424.708 513 434.531Z" fill="#949494"/>
</g>
<defs>
<clipPath id="clip0_105_9">
<rect width="512" height="512" fill="white"/>
</clipPath>
</defs>
</svg>
